<?xml version="1.0" standalone="no"?>
<!DOCTYPE svg PUBLIC "-//W3C//DTD SVG 20010904//EN"
 "http://www.w3.org/TR/2001/REC-SVG-20010904/DTD/svg10.dtd">
<svg version="1.0" xmlns="http://www.w3.org/2000/svg"
 width="816.000000pt" height="816.000000pt" viewBox="0 0 816.000000 816.000000"
 preserveAspectRatio="xMidYMid meet">
<metadata>
Created by potrace 1.11, written by Peter Selinger 2001-2013
</metadata>
<g transform="translate(0.000000,816.000000) scale(0.100000,-0.100000)"
fill="#000000" stroke="none">
<path d="M3659 7956 c-2 -2 -42 -6 -89 -10 -168 -13 -245 -21 -245 -26 0 -1
-11 -3 -25 -5 -56 -6 -125 -17 -131 -21 -4 -2 -24 -6 -45 -9 -32 -5 -65 -12
-94 -20 -3 -1 -32 -7 -65 -15 -81 -18 -86 -20 -170 -44 -60 -18 -169 -54 -235
-77 -30 -10 -44 -15 -70 -24 -3 -1 -18 -8 -35 -15 -16 -7 -33 -14 -37 -14 -3
-1 -10 -4 -14 -8 -4 -5 -16 -8 -26 -8 -10 0 -18 -4 -18 -10 0 -5 -8 -10 -17
-10 -10 0 -33 -9 -50 -20 -18 -11 -33 -18 -33 -15 0 4 -209 -102 -314 -159
-121 -66 -418 -272 -526 -364 -101 -87 -129 -112 -184 -162 -113 -105 -230
-229 -336 -355 -23 -27 -51 -60 -61 -73 -10 -12 -19 -26 -19 -30 0 -4 -9 -14
-20 -22 -11 -8 -20 -18 -20 -22 0 -4 -20 -34 -44 -65 -61 -81 -176 -258 -176
-272 0 -6 -4 -11 -8 -11 -5 0 -19 -22 -32 -50 -13 -27 -27 -50 -32 -50 -4 0
-8 -9 -8 -19 0 -11 -4 -21 -8 -23 -6 -2 -134 -252 -137 -268 -1 -3 -9 -22 -18
-43 -34 -78 -87 -215 -87 -225 0 -5 -7 -23 -15 -38 -8 -16 -15 -36 -15 -45 0
-8 -5 -20 -12 -27 -7 -7 -9 -12 -5 -12 4 0 1 -17 -7 -37 -7 -21 -21 -65 -30
-98 -9 -33 -21 -80 -28 -105 -7 -25 -13 -49 -14 -55 0 -5 -4 -21 -7 -35 -4
-14 -9 -36 -11 -50 -3 -14 -8 -36 -11 -50 -5 -24 -7 -36 -22 -120 -3 -19 -7
-44 -10 -55 -2 -11 -6 -40 -8 -65 -2 -25 -6 -58 -9 -75 -20 -115 -28 -610 -13
-765 15 -154 19 -191 37 -295 11 -60 21 -126 24 -145 6 -44 81 -335 96 -375 6
-16 12 -32 12 -35 1 -8 9 -31 23 -70 7 -19 13 -37 13 -40 0 -3 6 -18 13 -35 7
-16 13 -32 14 -35 22 -82 197 -466 219 -482 6 -4 7 -8 3 -8 -4 0 4 -17 18 -37
14 -21 25 -43 25 -50 0 -7 5 -13 10 -13 6 0 10 -4 10 -10 0 -9 54 -101 72
-125 5 -5 27 -39 49 -75 23 -36 45 -66 50 -68 5 -2 9 -8 9 -13 0 -20 220 -296
310 -390 141 -148 180 -187 180 -185 0 2 24 -20 54 -48 47 -45 76 -71 163
-143 87 -73 221 -173 231 -173 6 0 12 -4 14 -8 3 -8 155 -112 163 -112 2 0 23
-13 47 -29 69 -46 306 -170 438 -228 25 -11 66 -30 92 -42 26 -11 52 -21 58
-21 6 0 18 -4 28 -9 35 -19 125 -51 141 -51 10 0 21 -4 26 -9 6 -5 37 -17 70
-26 33 -9 92 -26 130 -37 39 -11 80 -21 93 -22 12 0 22 -5 22 -9 0 -4 6 -7 13
-6 6 2 26 0 42 -4 17 -4 40 -10 53 -12 12 -3 32 -7 45 -10 49 -11 179 -32 247
-41 25 -3 56 -7 70 -10 76 -13 250 -19 635 -19 381 0 479 3 640 21 22 2 60 6
85 9 25 2 45 4 45 5 0 2 34 9 75 14 46 7 247 49 330 70 82 21 127 34 265 81
88 29 174 61 190 69 17 9 33 16 37 16 3 0 28 10 55 22 26 11 53 22 58 23 17 4
265 130 323 164 29 17 55 31 58 31 3 0 17 8 32 18 48 33 147 97 157 102 18 9
109 73 123 87 7 7 17 13 21 13 4 0 16 8 27 17 10 10 46 38 78 63 75 57 225
187 295 257 29 29 58 53 62 53 5 0 9 4 9 8 0 4 30 40 68 79 37 39 83 89 102
112 19 23 45 54 58 69 12 15 42 52 65 82 23 30 45 57 48 60 8 7 188 273 219
325 13 22 23 43 22 48 -1 4 2 7 8 7 5 0 10 7 10 15 0 8 4 15 8 15 4 0 13 12
19 28 6 15 32 64 57 110 25 45 46 86 47 90 1 4 17 39 35 77 60 130 169 416
189 501 3 10 16 60 30 109 39 140 86 373 100 500 3 22 7 54 10 70 26 161 26
693 1 870 -3 17 -8 55 -11 85 -4 30 -9 69 -11 85 -2 17 -8 53 -14 80 -5 28
-11 59 -13 70 -1 11 -6 26 -10 33 -5 6 -6 12 -4 12 3 0 1 17 -4 38 -5 20 -12
46 -14 57 -6 29 -26 108 -32 125 -2 8 -5 17 -5 20 0 3 -7 28 -15 55 -9 28 -16
55 -18 60 -1 6 -8 24 -14 40 -7 17 -15 39 -17 50 -4 21 -20 66 -35 100 -5 11
-20 52 -35 90 -72 195 -215 470 -360 693 -66 101 -201 286 -236 323 -7 8 -38
44 -68 79 -43 52 -151 168 -216 234 -41 41 -140 131 -199 181 -38 33 -72 63
-75 66 -3 3 -50 39 -105 80 -203 153 -416 284 -627 387 -68 34 -127 61 -133
62 -5 1 -21 8 -35 15 -32 17 -122 57 -135 60 -5 1 -19 5 -30 9 -11 5 -31 12
-45 17 -14 5 -38 14 -55 20 -16 7 -32 13 -35 14 -3 1 -32 10 -65 20 -33 11
-63 20 -67 21 -5 1 -9 2 -10 4 -4 2 -24 7 -62 15 -16 3 -33 8 -38 11 -4 3 -16
7 -25 9 -10 2 -58 13 -108 25 -49 12 -99 23 -110 25 -11 1 -47 7 -80 13 -111
20 -156 27 -250 37 -33 4 -78 9 -100 12 -46 5 -950 14 -956 9z m521 -1350 c51
-5 124 -17 195 -32 17 -3 39 -7 50 -9 11 -2 40 -9 65 -15 25 -7 52 -13 60 -15
12 -2 111 -32 170 -51 8 -3 16 -5 18 -4 1 0 15 -6 30 -14 15 -8 43 -20 62 -27
44 -16 239 -110 305 -147 28 -16 90 -55 139 -88 49 -32 97 -63 105 -69 9 -5
18 -12 21 -16 3 -3 23 -18 44 -35 83 -61 272 -242 367 -349 46 -52 179 -230
179 -239 0 -4 8 -16 18 -27 11 -10 25 -32 33 -47 8 -15 30 -54 50 -87 142
-240 266 -599 303 -876 3 -19 7 -50 10 -69 22 -145 23 -470 1 -610 -3 -19 -8
-53 -10 -75 -2 -23 -14 -86 -26 -140 -12 -55 -22 -104 -23 -110 -1 -5 -10 -37
-20 -70 -10 -33 -19 -64 -20 -70 -4 -18 -18 -60 -31 -90 -7 -16 -25 -64 -41
-105 -67 -182 -270 -528 -369 -626 -8 -9 -15 -18 -15 -22 0 -7 -56 -69 -144
-162 -97 -102 -284 -262 -368 -315 -9 -5 -40 -27 -70 -47 -30 -21 -58 -38 -61
-38 -3 0 -25 -13 -49 -29 -64 -42 -280 -145 -389 -185 -92 -34 -276 -89 -329
-100 -344 -67 -408 -66 -750 9 -108 23 -340 101 -440 147 -30 14 -62 28 -70
32 -8 3 -22 10 -30 14 -8 5 -26 15 -39 21 -101 53 -285 167 -301 186 -7 8 -18
15 -25 15 -8 0 -15 3 -17 8 -1 4 -37 34 -78 67 -138 110 -270 240 -380 375
-25 30 -48 57 -52 58 -5 2 -8 10 -8 17 0 8 -6 18 -12 22 -7 4 -17 15 -23 24
-5 9 -31 49 -57 88 -27 39 -48 76 -48 80 0 5 -4 11 -9 13 -12 4 -129 232 -170
332 -28 68 -88 239 -95 271 -2 6 -8 30 -15 55 -7 25 -15 52 -16 60 -43 204
-49 245 -59 385 -3 33 -7 70 -10 83 -3 12 0 22 5 22 6 0 6 7 1 18 -18 37 3
374 33 522 3 14 8 41 11 60 33 207 164 553 288 765 20 33 39 67 43 75 13 27
124 183 178 250 72 91 238 270 249 270 2 0 19 15 39 33 91 87 350 277 376 277
5 0 11 4 13 9 3 8 280 155 301 159 4 1 24 9 45 18 119 50 363 123 466 138 21
4 41 8 45 10 3 2 31 7 61 11 180 23 159 22 290 11z"/>
</g>
</svg>
