<svg xmlns="http://www.w3.org/2000/svg" viewBox="0 0 477.19 97.14"><defs><style>.cls-1{fill:#8c8c8c}</style></defs><g id="Layer_2" data-name="Layer 2"><g id="Layer_1-2" data-name="Layer 1"><path class="cls-1" d="M134.54 28.9h14.89c7.39 0 13 4.05 13 12S157 52.79 149.54 52.79H138.2v15.45h-3.66zm14.66 20.52c5 0 9.6-2.42 9.6-8.55s-4.57-8.6-9.71-8.6H138.2v17.15zM183.43 28.9h3.67v36h17.43v3.37h-21.1zM249.23 59.76h-18.85l-3 8.48h-3.66l14.17-39.34h3.83l14.16 39.34h-3.66zm-17.77-2.93h16.7l-8.3-23.49h-.11zM280.86 32.27h-12.41V28.9h28.49v3.37h-12.42v36h-3.66zM318 28.9h23.3v3.37h-19.62v14h18.05v3.26h-18.05v15.34h19.63v3.37H318zM363.46 28.9h23.81v4.27h-19.13v14.22h17.54v4.1h-17.54v16.75h-4.68zM408.61 28.9h4.68v39.34h-4.68zM446.14 33.17h-12.25V28.9H463v4.27h-12.24v35.07h-4.62z"/><path d="M48.57 97.14a48.57 48.57 0 1 1 48.57-48.57 48.63 48.63 0 0 1-48.57 48.57zm0-80.42a31.86 31.86 0 1 0 31.86 31.85 31.89 31.89 0 0 0-31.86-31.85z" fill="#eaeaea"/><path d="M53.6 97.14a48.57 48.57 0 1 1 48.58-48.57A48.63 48.63 0 0 1 53.6 97.14zm0-80.42a31.86 31.86 0 1 0 31.86 31.85A31.89 31.89 0 0 0 53.6 16.72z" fill="#d3d3d3"/><path d="M51.09 97.14a48.57 48.57 0 1 1 48.57-48.57 48.63 48.63 0 0 1-48.57 48.57zm0-80.42a31.86 31.86 0 1 0 31.85 31.85 31.89 31.89 0 0 0-31.85-31.85z" fill="#c1c2c2"/><path id="_8" data-name="8" class="cls-1" d="M473.16 20.86a4 4 0 1 0 4 4 4 4 0 0 0-4-4zm0 7.39a3.37 3.37 0 1 1 3.37-3.37 3.36 3.36 0 0 1-3.37 3.37zm1.11-2.88a1.63 1.63 0 0 0-.45-.35 1.38 1.38 0 0 0 .83-.39 1.12 1.12 0 0 0 .28-.78 1.21 1.21 0 0 0-.18-.66 1 1 0 0 0-.49-.41 3.28 3.28 0 0 0-1-.11h-1.79v4.2h.85v-1.75h.17a1.51 1.51 0 0 1 .43 0 .72.72 0 0 1 .26.18 5.82 5.82 0 0 1 .44.62l.62.91h1l-.51-.82a4.92 4.92 0 0 0-.46-.64zm-1.3-.92h-.63v-1.07h.66a6 6 0 0 1 .62 0 .47.47 0 0 1 .32.16.48.48 0 0 1 .11.34.47.47 0 0 1-.32.5 3.5 3.5 0 0 1-.73.07z"/></g></g></svg>