<svg xmlns="http://www.w3.org/2000/svg" viewBox="0 0 102.18 97.14"><g data-name="Layer 2"><g data-name="Layer 1"><path d="M48.57 97.14a48.57 48.57 0 1 1 48.57-48.57 48.63 48.63 0 0 1-48.57 48.57zm0-80.42a31.86 31.86 0 1 0 31.86 31.85 31.89 31.89 0 0 0-31.86-31.85z" fill="#eaeaea"/><path d="M53.6 97.14a48.57 48.57 0 1 1 48.58-48.57A48.63 48.63 0 0 1 53.6 97.14zm0-80.42a31.86 31.86 0 1 0 31.86 31.85A31.89 31.89 0 0 0 53.6 16.72z" fill="#d3d3d3"/><path d="M51.09 97.14a48.57 48.57 0 1 1 48.57-48.57 48.63 48.63 0 0 1-48.57 48.57zm0-80.42a31.86 31.86 0 1 0 31.85 31.85 31.89 31.89 0 0 0-31.85-31.85z" fill="#c1c2c2"/></g></g></svg>