<svg xmlns="http://www.w3.org/2000/svg" viewBox="0 0 102.18 97.14"><path d="M48.57 97.15a48.58 48.58 0 1 1 48.57-48.57 48.63 48.63 0 0 1-48.57 48.57zm0-80.43a31.86 31.86 0 1 0 31.86 31.86 31.89 31.89 0 0 0-31.86-31.86z" fill="#fefefe"/><path d="M53.6 97.15a48.58 48.58 0 1 1 48.58-48.57A48.63 48.63 0 0 1 53.6 97.15zm0-80.43a31.86 31.86 0 1 0 31.91 31.86A31.89 31.89 0 0 0 53.6 16.72z" fill="#fefefe"/><path d="M51.09 97.15a48.58 48.58 0 1 1 48.57-48.57 48.63 48.63 0 0 1-48.57 48.57zm0-80.43a31.86 31.86 0 1 0 31.85 31.86 31.89 31.89 0 0 0-31.85-31.86z" fill="#fdfdfd"/></svg>