<svg xmlns="http://www.w3.org/2000/svg" width="79.12" height="58.88"><path data-name="”" d="M50.13 58.87a79.862 79.862 0 0 0 17.8-13q11.2-11.55 11.21-25.24 0-9.66-5.05-15.14A16.506 16.506 0 0 0 61.43.02 14.325 14.325 0 0 0 50.9 3.99q-4.02 3.99-4.02 10.82a13.491 13.491 0 0 0 3.68 9.84 12.378 12.378 0 0 0 9.24 3.77 35.172 35.172 0 0 0 3.85-.43 3.646 3.646 0 0 1 2.4.94 3.709 3.709 0 0 1 1.11 2.99q0 6.165-6.85 13.18a94.847 94.847 0 0 1-12.23 9.92zm-46.88 0q11.64-6.51 18.31-13.52 10.695-11.3 10.69-24.98 0-10.08-5.3-15.22A17.182 17.182 0 0 0 14.63.02Q7.445.02 3.72 4.38A15.207 15.207 0 0 0 0 14.56q0 6.33 3.68 10.09a12.486 12.486 0 0 0 9.33 3.77 33.1 33.1 0 0 0 3.76-.43 3.287 3.287 0 0 1 2.65 1.11 4.886 4.886 0 0 1 .86 2.91q0 6.33-7.19 13.51a89.868 89.868 0 0 1-11.89 9.5z" fill="#d7d7d7" fill-rule="evenodd" opacity=".4"/></svg>