<svg xmlns="http://www.w3.org/2000/svg" width="21.312" height="17.376"><path fill-rule="evenodd" fill="currentColor" d="M16 1.539a6.62 6.62 0 0 1-1.885.517A3.299 3.299 0 0 0 15.558.24a6.568 6.568 0 0 1-2.085.796A3.282 3.282 0 0 0 7.88 4.03 9.326 9.326 0 0 1 1.114.601 3.28 3.28 0 0 0 2.13 4.982a3.266 3.266 0 0 1-1.487-.41v.041a3.283 3.283 0 0 0 2.633 3.218 3.294 3.294 0 0 1-1.483.056 3.286 3.286 0 0 0 3.067 2.279A6.584 6.584 0 0 1 0 11.525 9.295 9.295 0 0 0 5.032 13c6.038 0 9.34-5.001 9.34-9.338 0-.142-.004-.284-.01-.425A6.645 6.645 0 0 0 16 1.539z"/></svg>