<svg xmlns="http://www.w3.org/2000/svg" xmlns:xlink="http://www.w3.org/1999/xlink"><defs><symbol viewBox="0 0 26.688 14.688" id="arrow"><path fill-rule="evenodd" fill="currentColor" d="M13.718 11.004l-.974-.985 4.392-3.846H.011V4.828h17.122L12.744.984l.974-.985L20 5.502l-6.282 5.502z" /></symbol><symbol viewBox="0 0 12 24" id="facebook"><path fill-rule="evenodd" fill="currentColor" d="M5.845 18H2.638V9H.499V5.899l2.139-.001-.003-1.828c0-2.53.652-4.07 3.486-4.07H8.48v3.102H7.006c-1.104 0-1.157.434-1.157 1.243l-.004 1.553h2.652l-.313 3.101L5.847 9l-.002 9z" /></symbol><symbol viewBox="0 0 21.312 21.312" id="instagram"><path fill-rule="evenodd" fill="currentColor" d="M12.837 8a4.837 4.837 0 1 1-9.583-.93H0v6.429A2.5 2.5 0 0 0 2.5 16h11c1.38 0 2.5-1.12 2.5-2.501V7.07h-3.253c.059.301.09.611.09.93zm.663-8h-11A2.5 2.5 0 0 0 0 2.5v2.709h4.05A4.831 4.831 0 0 1 8 3.163c1.632 0 3.074.809 3.95 2.046H16V2.5A2.5 2.5 0 0 0 13.5 0zm-2.523 8a2.977 2.977 0 1 0-5.953 0 2.977 2.977 0 0 0 5.953 0z" /></symbol><symbol viewBox="0 0 102.18 97.14" id="plate-white"><path d="M48.57 97.15a48.58 48.58 0 1 1 48.57-48.57 48.63 48.63 0 0 1-48.57 48.57zm0-80.43a31.86 31.86 0 1 0 31.86 31.86 31.89 31.89 0 0 0-31.86-31.86z" fill="#fefefe" /><path d="M53.6 97.15a48.58 48.58 0 1 1 48.58-48.57A48.63 48.63 0 0 1 53.6 97.15zm0-80.43a31.86 31.86 0 1 0 31.91 31.86A31.89 31.89 0 0 0 53.6 16.72z" fill="#fefefe" /><path d="M51.09 97.15a48.58 48.58 0 1 1 48.57-48.57 48.63 48.63 0 0 1-48.57 48.57zm0-80.43a31.86 31.86 0 1 0 31.85 31.86 31.89 31.89 0 0 0-31.85-31.86z" fill="#fdfdfd" /></symbol><symbol viewBox="0 0 21.312 17.376" id="twitter"><path fill-rule="evenodd" fill="currentColor" d="M16 1.539a6.62 6.62 0 0 1-1.885.517A3.299 3.299 0 0 0 15.558.24a6.568 6.568 0 0 1-2.085.796A3.282 3.282 0 0 0 7.88 4.03 9.326 9.326 0 0 1 1.114.601 3.28 3.28 0 0 0 2.13 4.982a3.266 3.266 0 0 1-1.487-.41v.041a3.283 3.283 0 0 0 2.633 3.218 3.294 3.294 0 0 1-1.483.056 3.286 3.286 0 0 0 3.067 2.279A6.584 6.584 0 0 1 0 11.525 9.295 9.295 0 0 0 5.032 13c6.038 0 9.34-5.001 9.34-9.338 0-.142-.004-.284-.01-.425A6.645 6.645 0 0 0 16 1.539z" /></symbol></defs></svg>